<?xml version="1.0" standalone="no"?>
<!DOCTYPE svg PUBLIC "-//W3C//DTD SVG 20010904//EN"
 "http://www.w3.org/TR/2001/REC-SVG-20010904/DTD/svg10.dtd">
<svg version="1.0" xmlns="http://www.w3.org/2000/svg"
 width="268.000000pt" height="268.000000pt" viewBox="0 0 268.000000 268.000000"
 preserveAspectRatio="xMidYMid meet">
<metadata>
Created by potrace 1.11, written by Peter Selinger 2001-2013
</metadata>
<g transform="translate(0.000000,268.000000) scale(0.100000,-0.100000)"
fill="#000000" stroke="none">
<path d="M1020 2471 c-226 -60 -447 -232 -648 -503 -40 -53 -72 -99 -72 -102
0 -2 -17 -31 -38 -63 -21 -32 -58 -98 -83 -148 -24 -49 -48 -93 -54 -97 -5 -4
-7 -8 -3 -8 4 0 -6 -28 -22 -63 -23 -52 -61 -164 -61 -182 0 -2 -5 -19 -10
-37 -18 -57 -23 -119 -23 -250 l0 -127 39 -76 c25 -51 56 -92 92 -125 50 -45
137 -95 187 -106 11 -3 32 -8 46 -11 34 -7 306 -7 353 1 107 18 102 18 133
-11 208 -199 464 -331 731 -378 131 -23 426 -20 499 5 142 49 243 129 295 235
26 53 31 75 35 166 4 96 2 113 -24 195 l-29 89 77 75 c103 101 156 181 194
293 25 75 30 113 30 227 -1 128 -8 183 -31 235 -21 49 -99 145 -119 145 -8 0
-14 4 -14 8 0 13 -83 31 -130 27 -53 -3 -148 -38 -183 -65 -14 -11 -30 -20
-36 -20 -6 0 -11 -4 -11 -9 0 -5 -8 -12 -17 -15 -10 -3 -36 -23 -59 -43 -22
-21 -60 -56 -85 -79 -24 -22 -86 -86 -138 -142 -52 -56 -96 -101 -97 -99 -4 3
-9 155 -19 492 -6 199 -9 224 -42 294 -57 120 -206 237 -353 276 -72 19 -231
17 -310 -4z m312 -144 c106 -33 184 -101 230 -203 21 -47 23 -66 29 -394 6
-329 14 -409 39 -425 6 -4 10 -17 10 -30 0 -24 -75 -108 -146 -162 -54 -41
-53 -43 -79 297 -2 36 -7 103 -11 150 -12 160 -59 296 -128 368 -53 57 -100
75 -204 80 -88 4 -96 3 -157 -27 -148 -73 -287 -300 -314 -513 -15 -122 -13
-345 3 -430 8 -42 33 -123 55 -180 22 -56 41 -112 43 -122 4 -28 -36 -34 -189
-30 -115 4 -133 7 -187 33 -63 29 -128 86 -152 133 -35 68 -36 238 -2 373 43
173 152 418 254 570 180 271 432 475 639 520 73 15 203 11 267 -8z m-207 -472
c76 -29 111 -114 131 -319 28 -300 46 -451 59 -494 17 -57 10 -68 -74 -120
-81 -49 -261 -138 -313 -154 -50 -15 -70 2 -118 107 -61 130 -73 195 -73 390
-1 202 12 267 78 400 72 145 147 206 244 200 25 -1 55 -6 66 -10z m1334 -115
c45 -23 79 -163 74 -299 -5 -151 -53 -266 -154 -369 -88 -90 -87 -90 -156 -38
-67 50 -102 69 -187 101 -130 49 -216 98 -216 124 0 31 249 302 361 394 81 65
147 97 207 97 29 0 61 -4 71 -10z m-677 -636 c20 -13 85 -44 145 -69 209 -88
232 -104 184 -129 -85 -44 -304 -65 -419 -41 -71 16 -165 64 -170 88 -3 12 27
44 122 132 62 58 73 59 138 19z m-341 -280 c108 -90 249 -129 433 -122 96 4
128 11 236 46 68 23 128 38 133 33 29 -29 37 -232 11 -287 -25 -53 -93 -114
-161 -146 -61 -29 -63 -29 -246 -29 -252 0 -353 19 -521 95 -90 41 -248 139
-299 185 -47 42 -54 36 126 127 71 36 154 81 185 100 31 19 58 34 59 34 0 0
20 -16 44 -36z"/>
</g>
</svg>
